HIERARCHY
ROOT Hips
{
	OFFSET 0.00000 0.00000 0.00000
	CHANNELS 6 Xposition Yposition Zposition Zrotation Yrotation Xrotation 
	JOINT LHipJoint
	{
		OFFSET 0 0 0
		CHANNELS 3 Zrotation Yrotation Xrotation
		JOINT LeftHip
		{
			OFFSET 1.58895 -1.83665 0.71753
			CHANNELS 3 Zrotation Yrotation Xrotation
			JOINT LeftKnee
			{
				OFFSET 2.50528 -6.88321 0.00000
				CHANNELS 3 Zrotation Yrotation Xrotation
				JOINT LeftAnkle
				{
					OFFSET 2.63244 -7.23257 0.00000
					CHANNELS 3 Zrotation Yrotation Xrotation
					JOINT LeftToe
					{
						OFFSET 0.23691 -0.65090 1.72750
						CHANNELS 3 Zrotation Yrotation Xrotation
						End Site
						{
							OFFSET 0.00000 -0.00000 0.92561
						}
					}
				}
			}
		}
	}
	JOINT RHipJoint
	{
		OFFSET 0 0 0
		CHANNELS 3 Zrotation Yrotation Xrotation
		JOINT RightHip
		{
			OFFSET -1.51435 -1.83665 0.71753
			CHANNELS 3 Zrotation Yrotation Xrotation
			JOINT RightKnee
			{
				OFFSET -2.54551 -6.99375 0.00000
				CHANNELS 3 Zrotation Yrotation Xrotation
				JOINT RightAnkle
				{
					OFFSET -2.66027 -7.30903 0.00000
					CHANNELS 3 Zrotation Yrotation Xrotation
					JOINT RightToe
					{
						OFFSET -0.22981 -0.63138 2.03959
						CHANNELS 3 Zrotation Yrotation Xrotation
						End Site
						{
							OFFSET -0.00000 -0.00000 1.07060
						}
					}
				}
			}
		}
	}
	JOINT lowerback
	{
		OFFSET 0 0 0
		CHANNELS 3 Zrotation Yrotation Xrotation
		JOINT Chest
		{
			OFFSET -0.02651 1.86275 -0.11152
			CHANNELS 3 Zrotation Yrotation Xrotation
			JOINT Chest2
			{
				OFFSET 0.01019 1.86224 0.04087
				CHANNELS 3 Zrotation Yrotation Xrotation
				JOINT lowerneck
				{
					OFFSET 0 0 0
					CHANNELS 3 Zrotation Yrotation Xrotation
					JOINT Neck
					{
						OFFSET -0.01926 1.80512 0.08867
						CHANNELS 3 Zrotation Yrotation Xrotation
						JOINT Head
						{
							OFFSET 0.05516 1.76451 -0.38475
							CHANNELS 3 Zrotation Yrotation Xrotation
							End Site
							{
								OFFSET 0.01592 1.82587 -0.14001
							}
						}
					}
				}
				JOINT LeftCollar
				{
					OFFSET 0 0 0
					CHANNELS 3 Zrotation Yrotation Xrotation
					JOINT LeftShoulder
					{
						OFFSET 3.47116 1.51376 0.14491
CHANNELS 3 Zrotation Xrotation Yrotation
						JOINT LeftElbow
						{
OFFSET 0 -4.780950 0.000000
CHANNELS 3 Zrotation Xrotation Yrotation
							JOINT LeftWrist
							{
OFFSET 0 -3.586150 -0.000000
CHANNELS 3 Zrotation Xrotation Yrotation
								JOINT lhand
								{
									OFFSET 0 0 0
CHANNELS 3 Zrotation Xrotation Yrotation
									JOINT LFingers
									{
OFFSET 0 -0.659810 0.000000
CHANNELS 3 Zrotation Xrotation Yrotation
										End Site
										{
OFFSET 0 -0.531960 0.000000
										}
									}
								}
								JOINT LThumb
								{
OFFSET 0 0.000000 0.000000
CHANNELS 3 Zrotation Xrotation Yrotation
									End Site
									{
OFFSET 0 -0.540080 0.540080
									}
								}
							}
						}
					}
				}
				JOINT RightCollar
				{
					OFFSET 0 0 0
					CHANNELS 3 Zrotation Yrotation Xrotation
					JOINT RightShoulder
					{
						OFFSET -3.31725 1.61216 0.35156
CHANNELS 3 Zrotation Xrotation Yrotation
						JOINT RightElbow
						{
OFFSET 0 -4.489130 0.000000
CHANNELS 3 Zrotation Xrotation Yrotation
							JOINT RightWrist
							{
OFFSET 0 -3.705100 0.000000
CHANNELS 3 Zrotation Xrotation Yrotation
								JOINT rhand
								{
									OFFSET 0 0 0
CHANNELS 3 Zrotation Xrotation Yrotation
									JOINT RFingers
									{
OFFSET 0 -0.449140 0.000000
CHANNELS 3 Zrotation Xrotation Yrotation
										End Site
										{
OFFSET 0 -0.362110 0.000000
										}
									}
								}
								JOINT RThumb
								{
OFFSET 0 0.000000 0.000000
CHANNELS 3 Zrotation Xrotation Yrotation
									End Site
									{
OFFSET 0 -0.367630 0.367630
									}
								}
							}
						}
					}
				}
			}
		}
	}
}
MOTION
Frames: 4
Frame Time: 0.008333333333333333
-1.311833 17.661425 5.530463 -9.023053 -2.407854 -7.573227 0.000000 0.000000 0.000000 -2.659308 9.573365 32.327806 3.588469 -11.591392 -34.301611 -1.029890 20.842616 4.231855 1.077867 -6.599163 -18.533044 0.000000 0.000000 0.000000 23.139567 -14.993598 24.642434 -1.407200 7.502761 -21.213982 0.344039 -10.593696 -6.409430 -0.000580 -0.153182 0.420847 1.983132 0.781337 14.958172 1.439216 1.437257 2.505202 0.116959 0.677100 -5.714605 -17.920327 -13.747880 2.168042 14.030784 -20.746358 17.036412 5.621168 -10.389856 8.291656 0.000000 0.000000 0.000000 1.407792 20.567506 -51.496796 114.659045 -57.572683 81.181292 8.995627 -23.722543 14.638677 0.000000 0.000000 0.000000 -7.125000 0.000000 0.000000 -12.550477 15.399813 -8.988446 0.000000 0.000000 0.000000 -5.372128 2.523220 11.110342 -150.523954 -40.439967 -108.931809 -21.901281 -28.360950 37.312386 0.000000 0.000000 0.000000 7.125000 0.000000 0.000000 17.639424 68.622967 -10.113015
-1.309389 17.695809 5.564146 -8.969099 -2.365402 -7.540706 0.000000 0.000000 0.000000 -2.958691 8.767171 32.233115 3.423755 -11.351147 -33.473620 -1.132954 21.184140 3.324776 1.077088 -6.596895 -18.526475 0.000000 0.000000 0.000000 23.180283 -14.584985 24.322890 -1.276263 7.158945 -20.187331 0.298987 -10.178793 -7.228425 -0.002204 -0.295940 0.813151 1.603473 0.618401 14.746219 1.449569 1.157884 2.455990 0.399064 0.547856 -5.661326 -17.801554 -13.731121 1.786723 14.302452 -20.570846 15.797737 5.698824 -10.276818 7.930326 0.000000 0.000000 0.000000 1.870914 21.055591 -51.808026 114.115599 -57.684249 80.722299 8.829314 -23.797692 14.284844 0.000000 0.000000 0.000000 -7.125000 0.000000 0.000000 -12.674590 15.758463 -8.981254 0.000000 0.000000 0.000000 -5.101505 2.664897 11.306489 -150.318021 -40.619182 -108.798030 -22.067141 -28.405659 37.334527 0.000000 0.000000 0.000000 7.125000 0.000000 0.000000 17.459028 68.695107 -10.035626
-1.293508 17.733646 5.591744 -8.893022 -2.667023 -7.405275 0.000000 0.000000 0.000000 -3.386582 7.985749 32.083784 3.245334 -11.081400 -32.555526 -1.289806 21.778955 2.040462 1.028490 -6.450510 -18.097438 0.000000 0.000000 0.000000 23.208720 -13.852321 23.748356 -1.116296 6.709354 -18.858077 0.242641 -9.623943 -7.931587 -0.008887 -0.599188 1.646640 1.377959 0.564599 14.549406 1.447641 1.048306 2.368956 0.547143 0.498231 -5.650067 -17.449833 -13.724653 1.092369 14.332360 -20.319442 14.540630 5.654617 -10.113209 7.557957 0.000000 0.000000 0.000000 2.228983 21.424187 -52.091420 113.687821 -57.769823 80.360644 8.565057 -23.935664 14.090653 0.000000 0.000000 0.000000 -7.125000 0.000000 0.000000 -12.859881 15.965009 -9.060591 0.000000 0.000000 0.000000 -4.812998 2.788416 11.260915 -150.157515 -40.757954 -108.693318 -21.748173 -28.789273 37.431812 0.000000 0.000000 0.000000 7.125000 0.000000 0.000000 17.978628 68.686026 -10.338981
-1.269988 17.768160 5.612778 -8.936713 -3.092655 -7.219488 0.000000 0.000000 0.000000 -3.696246 7.269297 31.947148 3.092620 -10.843364 -31.753452 -1.447220 22.436710 0.860836 0.973806 -6.282075 -17.605197 0.000000 0.000000 0.000000 23.329161 -13.149972 22.992545 -0.953358 6.216711 -17.414909 0.180104 -8.926447 -8.428499 -0.016995 -0.841784 2.313631 1.440358 0.503394 14.424334 1.420327 0.974662 2.242308 0.497762 0.460046 -5.713946 -16.988742 -13.613171 0.458976 14.469343 -19.935038 13.107239 5.659685 -9.883191 7.102371 0.000000 0.000000 0.000000 2.625909 21.793324 -52.316220 113.557153 -57.795602 80.250103 8.250982 -24.031570 14.148267 0.000000 0.000000 0.000000 -7.125000 0.000000 0.000000 -13.069211 15.926256 -9.227520 0.000000 0.000000 0.000000 -4.605914 2.653391 11.031566 -149.958695 -40.928744 -108.563371 -22.387969 -27.560739 39.730359 0.000000 0.000000 0.000000 7.125000 0.000000 0.000000 20.353318 70.993856 -12.791264
